<?xml version="1.0" encoding="utf-8"?>
<!-- Generator: Adobe Illustrator 16.0.0, SVG Export Plug-In . SVG Version: 6.00 Build 0)  -->
<!DOCTYPE svg PUBLIC "-//W3C//DTD SVG 1.1//EN" "http://www.w3.org/Graphics/SVG/1.1/DTD/svg11.dtd">
<svg version="1.1" id="Layer_1" xmlns="http://www.w3.org/2000/svg" xmlns:xlink="http://www.w3.org/1999/xlink" x="0px" y="0px"
	 width="153.66px" height="76.857px" viewBox="0 0 153.66 76.857" enable-background="new 0 0 153.66 76.857" xml:space="preserve">
<g id="Layer_1_copy" display="none">
	<g display="inline">
		<path fill="#E8364B" d="M37.19,72.387l9.686-45.652h8.354l-0.935,4.361c0.85-0.718,1.822-1.312,2.917-1.784
			c1.095-0.473,2.379-0.708,3.852-0.708c0.981,0,1.907,0.155,2.775,0.467c0.868,0.312,1.619,0.821,2.251,1.529
			c0.632,0.708,1.133,1.646,1.501,2.817c0.368,1.171,0.552,2.615,0.552,4.333c0,1.304-0.09,2.714-0.269,4.234
			c-0.18,1.52-0.486,3.04-0.92,4.56c-0.435,1.521-1.005,2.983-1.713,4.391c-0.708,1.406-1.591,2.647-2.648,3.724
			c-1.058,1.076-2.308,1.939-3.752,2.592c-1.444,0.65-3.101,0.978-4.97,0.978c-0.736,0-1.378-0.058-1.926-0.17
			c-0.548-0.113-1.015-0.266-1.402-0.453c-0.387-0.188-0.708-0.41-0.963-0.666c-0.255-0.254-0.467-0.515-0.637-0.778l-3.002,14.132
			L37.19,72.387z M49.877,51.854c0.113,0.32,0.344,0.623,0.694,0.905c0.349,0.283,0.854,0.426,1.515,0.426
			c1.02,0,1.926-0.261,2.719-0.779s1.491-1.207,2.096-2.067c0.604-0.858,1.114-1.836,1.529-2.931s0.755-2.218,1.02-3.37
			c0.264-1.15,0.458-2.289,0.581-3.413c0.123-1.123,0.184-2.138,0.184-3.044c0-1.114-0.104-1.992-0.312-2.634
			s-0.458-1.123-0.75-1.444c-0.293-0.32-0.609-0.523-0.949-0.608c-0.34-0.085-0.642-0.127-0.906-0.127
			c-0.661,0-1.355,0.24-2.082,0.722s-1.364,1.194-1.912,2.138L49.877,51.854z"/>
		<path fill="#E8364B" d="M112.975,47.493c-0.548,1.567-1.157,2.927-1.827,4.078s-1.369,2.124-2.096,2.917s-1.473,1.435-2.237,1.926
			s-1.506,0.868-2.224,1.133c-0.717,0.266-1.401,0.443-2.053,0.538c-0.65,0.096-1.231,0.143-1.742,0.143
			c-0.868,0-1.68-0.132-2.436-0.396c-0.755-0.265-1.412-0.68-1.968-1.246c-0.558-0.565-0.996-1.284-1.317-2.151
			c-0.32-0.868-0.48-1.916-0.48-3.145c0-0.528,0.037-1.108,0.113-1.742c0.076-0.632,0.188-1.316,0.34-2.053l3.482-16.284h-1.926
			l0.48-2.321h1.897l1.756-8.016l8.581-1.161l-1.982,9.177h3.483l-0.452,2.321h-3.484l-3.709,17.39
			c-0.096,0.32-0.156,0.637-0.184,0.948c-0.029,0.312-0.043,0.619-0.043,0.92c0,0.812,0.188,1.373,0.566,1.687
			c0.377,0.311,0.972,0.467,1.783,0.467c0.566,0,1.119-0.127,1.658-0.383c0.537-0.254,1.033-0.608,1.486-1.062
			c0.453-0.453,0.859-0.995,1.219-1.628c0.357-0.632,0.65-1.316,0.877-2.053h2.437V47.493z"/>
		<g>
			<path fill="#C92032" d="M109.662,49.3c-0.358,0.634-0.765,1.3-1.218,1.752c-0.452,0.453-0.948,0.869-1.487,1.123
				c-0.537,0.257-1.09,0.413-1.656,0.413c-0.812,0-1.407-0.141-1.784-0.45c-0.274-0.229-0.447-0.582-0.521-1.074
				c0.159,1.832,1.045,4.29,4.467,4.862c0.539-0.412,1.072-0.873,1.591-1.438c0.727-0.793,1.425-2.011,2.096-3.162
				c0.67-1.152,1.279-2.324,1.827-4.324h-2.436C110.313,48,110.02,48.667,109.662,49.3z"/>
			<path fill="#C92032" d="M103.104,48.971l-0.026,0.025c0,0-0.031,0.167-0.062,0.428C103.033,49.275,103.071,49.123,103.104,48.971
				z"/>
			<path fill="#C92032" d="M102.968,50.067c0-0.03,0.002-0.062,0.004-0.091C102.971,50.007,102.968,50.035,102.968,50.067z"/>
		</g>
		<path fill="#E8364B" d="M128.466,47.493c-0.549,1.567-1.156,2.927-1.827,4.078s-1.368,2.124-2.097,2.917
			c-0.727,0.793-1.473,1.435-2.235,1.926c-0.767,0.491-1.507,0.868-2.224,1.133c-0.719,0.266-1.402,0.443-2.054,0.538
			c-0.651,0.096-1.231,0.143-1.741,0.143c-0.869,0-1.682-0.132-2.437-0.396s-1.412-0.68-1.968-1.246
			c-0.557-0.565-0.996-1.284-1.317-2.151c-0.321-0.868-0.481-1.916-0.481-3.145c0-0.528,0.039-1.108,0.113-1.742
			c0.076-0.632,0.189-1.316,0.34-2.053l3.483-16.284h-1.926l0.481-2.321h1.896l1.756-8.016l8.581-1.161l-1.981,9.177h3.482
			l-0.453,2.321h-3.482l-3.711,17.39c-0.095,0.32-0.156,0.637-0.184,0.948c-0.027,0.312-0.042,0.619-0.042,0.92
			c0,0.812,0.188,1.373,0.565,1.687c0.379,0.311,0.974,0.467,1.785,0.467c0.565,0,1.119-0.127,1.655-0.383
			c0.539-0.254,1.034-0.608,1.487-1.062c0.453-0.453,0.859-0.995,1.218-1.628c0.358-0.632,0.651-1.316,0.878-2.053h2.438V47.493z"/>
		<g>
			<path fill="#C92032" d="M126.031,47c-0.227,1-0.52,1.667-0.878,2.3c-0.358,0.634-0.765,1.3-1.218,1.752
				c-0.453,0.453-0.948,0.869-1.486,1.123c-0.537,0.257-1.091,0.413-1.656,0.413c-0.812,0-1.406-0.141-1.785-0.45
				c-0.273-0.228-0.445-0.581-0.521-1.07c0.181,1.701,1.058,3.981,4.218,5.045c0.625-0.448,1.24-0.972,1.84-1.625
				c0.728-0.793,1.426-2.011,2.096-3.162c0.671-1.152,1.279-2.324,1.826-4.324L126.031,47L126.031,47z"/>
			<path fill="#C92032" d="M118.598,48.955l-0.024,0.017c0,0-0.048,0.205-0.084,0.545C118.507,49.332,118.557,49.143,118.598,48.955
				z"/>
			<path fill="#C92032" d="M118.449,50.319c0.002-0.237,0.012-0.478,0.032-0.72C118.46,49.802,118.447,50.045,118.449,50.319z"/>
		</g>
		<path fill="#E8364B" d="M123.822,57.887l6.146-29h8.354l-0.736,3.597c0.511-0.453,1.029-0.896,1.559-1.331
			c0.527-0.435,1.081-0.816,1.656-1.147c0.576-0.33,1.176-0.599,1.799-0.807s1.283-0.312,1.982-0.312c0.66,0,1.24,0.122,1.74,0.367
			c0.502,0.246,0.922,0.566,1.262,0.963c0.34,0.397,0.595,0.859,0.765,1.389c0.17,0.528,0.255,1.076,0.255,1.643
			c0,0.51-0.085,1.016-0.255,1.516s-0.431,0.948-0.779,1.345c-0.349,0.396-0.788,0.722-1.315,0.977
			c-0.528,0.255-1.144,0.382-1.842,0.382c-0.548,0-0.968-0.094-1.261-0.282c-0.292-0.188-0.514-0.426-0.665-0.708
			c-0.15-0.283-0.26-0.59-0.324-0.92c-0.066-0.33-0.139-0.638-0.213-0.92c-0.076-0.283-0.176-0.52-0.298-0.708
			c-0.123-0.188-0.325-0.283-0.608-0.283c-0.889,0-1.633,0.203-2.237,0.608c-0.604,0.406-1.265,0.939-1.981,1.601l-4.646,22.033
			L123.822,57.887L123.822,57.887z"/>
	</g>
	<path display="inline" fill="#E8364B" d="M41.466,22.203c0,0.812-0.109,1.553-0.326,2.223c-0.217,0.671-0.515,1.246-0.892,1.729
		c-0.378,0.48-0.84,0.854-1.388,1.119c-0.548,0.265-1.143,0.396-1.784,0.396c-0.736,0-1.402-0.155-1.997-0.467
		c-0.595-0.311-1.109-0.76-1.543-1.345c0.717-0.528,1.293-1.232,1.728-2.11c0.434-0.878,0.651-1.816,0.651-2.817
		c0-1.246-0.368-2.232-1.104-2.959c-0.736-0.728-1.747-1.091-3.03-1.091c-0.774,0-1.487,0.146-2.138,0.439s-1.208,0.699-1.671,1.218
		c-0.463,0.521-0.821,1.138-1.076,1.855s-0.382,1.501-0.382,2.351c0,0.642,0.078,1.265,0.234,1.868
		c0.156,0.604,0.389,1.189,0.701,1.757c0.623,1.133,1.406,2.247,2.351,3.342c0.944,1.096,1.963,2.205,3.059,3.328
		c1.095,1.124,2.114,2.322,3.059,3.597c0.944,1.274,1.728,2.653,2.351,4.136c0.623,1.481,0.935,3.12,0.935,4.914
		c0,1.906-0.396,3.667-1.189,5.281s-1.893,3.012-3.299,4.192c-1.407,1.18-3.059,2.104-4.956,2.775
		c-1.897,0.67-3.951,1.005-6.16,1.005c-1.851,0-3.526-0.241-5.027-0.723c-1.501-0.481-2.785-1.171-3.852-2.067
		c-1.067-0.896-1.893-1.968-2.478-3.214s-0.878-2.635-0.878-4.163c0-1.284,0.208-2.482,0.623-3.598
		c0.415-1.113,0.981-2.082,1.699-2.902c0.717-0.821,1.567-1.468,2.549-1.94c0.981-0.472,2.029-0.708,3.144-0.708
		c1.359,0,2.501,0.34,3.427,1.021c0.925,0.68,1.501,1.613,1.728,2.804c-1.02,0-1.936,0.142-2.747,0.425
		c-0.812,0.283-1.501,0.68-2.067,1.189c-0.566,0.509-1.005,1.128-1.317,1.854c-0.312,0.728-0.467,1.543-0.467,2.45
		c0,1.699,0.496,3.044,1.487,4.036c0.991,0.99,2.327,1.486,4.007,1.486c1.02,0,1.963-0.185,2.832-0.554
		c0.868-0.367,1.614-0.873,2.237-1.515s1.114-1.406,1.473-2.294c0.358-0.887,0.538-1.851,0.538-2.889
		c0-1.058-0.175-2.072-0.524-3.045c-0.35-0.972-0.817-1.916-1.402-2.831c-0.585-0.916-1.246-1.817-1.982-2.705
		s-1.492-1.779-2.266-2.677c-0.774-0.896-1.529-1.798-2.266-2.705c-0.737-0.906-1.397-1.836-1.982-2.79
		c-0.585-0.952-1.053-1.939-1.402-2.959c-0.35-1.02-0.524-2.096-0.524-3.229c0-1.529,0.326-2.94,0.977-4.234
		c0.651-1.293,1.558-2.412,2.719-3.355c1.161-0.944,2.535-1.686,4.121-2.224c1.586-0.537,3.313-0.807,5.183-0.807
		c1.567,0,2.983,0.194,4.248,0.581c1.265,0.387,2.346,0.935,3.243,1.643c0.896,0.708,1.59,1.562,2.082,2.563
		C41.221,19.862,41.466,20.976,41.466,22.203z"/>
	<polygon display="inline" fill="#C92032" points="110.371,31 110.824,29 107.363,29 106.489,33.023 106.489,33.023 106.886,31 	"/>
	<polygon display="inline" fill="#C92032" points="125.861,31 126.314,29 122.85,29 121.806,33.837 121.806,33.837 122.376,31 	"/>
</g>
<g id="Layer_4" display="none">
	<g display="inline">
		<g>
			<path fill="#C92032" d="M26.987,25.357l0.005,0.001c-0.069-0.186-0.129-0.372-0.183-0.561
				C26.903,25.151,26.987,25.357,26.987,25.357z"/>
			<path fill="#C92032" d="M38.648,16.298c-0.897-0.708-1.978-1.255-3.243-1.643c-0.526-0.161-1.084-0.28-1.663-0.374
				c-3.568,1.414-5.431,3.273-6.357,5.064c0.173-0.292,0.366-0.564,0.585-0.812c0.462-0.519,1.02-0.925,1.671-1.218
				c0.651-0.292,1.364-0.439,2.138-0.439c1.284,0,2.294,0.364,3.03,1.09c0.736,0.728,1.104,1.714,1.104,2.959
				c0,1.001-0.217,1.94-0.651,2.818c-0.435,0.878-1.01,1.582-1.728,2.11c0.434,0.585,0.949,1.034,1.543,1.345
				c0.594,0.311,1.26,0.467,1.997,0.467c0.642,0,1.236-0.132,1.784-0.396c0.547-0.265,1.01-0.638,1.388-1.119
				c0.377-0.481,0.675-1.058,0.892-1.729c0.217-0.67,0.326-1.41,0.326-2.223c0-1.227-0.246-2.341-0.736-3.342
				C40.239,17.861,39.545,17.006,38.648,16.298z"/>
		</g>
		<g>
			<path fill="#C92032" d="M23.426,54.885c-1.681,0-3.016-0.495-4.007-1.485c-0.991-0.992-1.487-2.337-1.487-4.036
				c0-0.906,0.156-1.723,0.467-2.45c0.312-0.727,0.75-1.345,1.317-1.854c0.567-0.511,1.255-0.906,2.067-1.189
				s1.728-0.425,2.747-0.425c-0.227-1.189-0.803-2.124-1.728-2.804c-0.925-0.681-2.067-1.021-3.427-1.021
				c-1.114,0-2.162,0.236-3.144,0.708s-1.832,1.119-2.549,1.94c-0.718,0.82-1.284,1.789-1.699,2.902
				c-0.416,1.114-0.623,2.313-0.623,3.598c0,1.528,0.292,2.917,0.878,4.163c0.585,1.245,1.411,2.316,2.478,3.214
				c0.041,0.034,0.087,0.062,0.129,0.098c5.019,0.802,9.25-0.817,11.39-1.902C25.374,54.703,24.438,54.885,23.426,54.885z"/>
			<path fill="#C92032" d="M26.975,53.944c-0.203,0.115-0.399,0.237-0.618,0.335C26.591,54.158,26.797,54.046,26.975,53.944z"/>
			<path fill="#C92032" d="M27.741,53.475l-0.002-0.023c-0.049,0.037-0.091,0.083-0.141,0.118
				C27.689,53.51,27.741,53.475,27.741,53.475z"/>
		</g>
	</g>
	<g display="inline">
		<path fill="#C92032" d="M53.321,35.601c0.544-0.931,1.175-1.637,1.895-2.112c0.727-0.481,1.42-0.722,2.082-0.722
			c0.264,0,0.566,0.042,0.906,0.127c0.34,0.085,0.656,0.288,0.949,0.608c0.292,0.321,0.542,0.804,0.75,1.444
			c0.208,0.642,0.312,1.52,0.312,2.634c0,0.589-0.036,1.242-0.087,1.922l0.008,0.002c0,0,0.858-6.375-2.299-10.419
			c-0.211,0.07-0.424,0.14-0.623,0.226c-1.095,0.472-2.067,1.066-2.917,1.784L53.321,35.601z"/>
		<polygon fill="#C92032" points="52.845,37.8 52.845,37.8 52.851,37.771 		"/>
	</g>
	<path display="inline" fill="#C92032" d="M57.236,49.833l-0.033,0.008C57.1,50.004,57.01,50.184,56.9,50.34
		c-0.604,0.86-1.303,1.549-2.096,2.067c-0.793,0.52-1.699,0.779-2.719,0.779c-0.661,0-1.166-0.143-1.515-0.426
		c-0.35-0.282-0.581-0.585-0.694-0.905l0.066-0.313l-1.001,4.618c0.132,0.206,0.298,0.407,0.481,0.606
		C53.999,55.86,57.236,49.833,57.236,49.833z"/>
	<path display="inline" fill="#E8364B" d="M101.675,34.268c-0.623,0.435-1.312,0.863-2.067,1.289
		c-0.755,0.425-1.528,0.798-2.321,1.118c-0.793,0.321-1.582,0.705-2.365,0.903C94.137,37.776,93.406,38,92.726,38
		c-0.15,0-0.27,0-0.354,0c-0.086,0-0.488-0.268-0.488-0.306v-0.057c0-6.175-2.373-9.262-7.338-9.262
		c-1.982,0-3.694,0.354-5.242,1.062c-1.549,0.708-2.885,1.638-4.065,2.79c-1.18,1.151-2.167,2.459-2.988,3.922
		s-1.485,2.959-2.004,4.489c-0.52,1.528-0.893,3.016-1.129,4.46c-0.236,1.443-0.352,2.732-0.352,3.865
		c0,1.662,0.232,3.073,0.694,4.233c0.462,1.162,1.105,2.105,1.926,2.832c0.821,0.728,1.803,1.256,2.946,1.586
		c1.142,0.331,2.383,0.496,3.724,0.496c1.773,0,3.455-0.406,5.041-1.218c1.586-0.812,2.992-1.974,4.22-3.483
		c1.228-1.511,2.242-3.342,3.044-5.494c0.803-2.151,1.317-4.568,1.543-7.25c2.133-0.357,4.098-0.953,5.891-1.784
		s3.258-1.841,4.391-3.029L101.675,34.268z M91.884,36.993c0-0.05-2.42-2.102-4.541-1.76c0,0.009,0.002,0.016,0.002,0.024
		c-0.549,0.246-0.987,0.628-1.317,1.147c-0.331,0.52-0.495,1.185-0.495,1.997c0,0.585,0.107,1.1,0.325,1.543
		c0.218,0.444,0.627,0.741,1.231,0.892c-0.227,1.699-0.57,3.285-1.033,4.759c-0.463,1.473-0.996,2.746-1.6,3.822
		c-0.604,1.076-1.261,1.926-1.969,2.549s-1.412,0.936-2.109,0.936c-0.549,0-1.01-0.066-1.389-0.198
		c-0.378-0.132-0.685-0.373-0.92-0.722c-0.236-0.351-0.406-0.826-0.51-1.432c-0.104-0.604-0.156-1.388-0.156-2.351
		s0.094-2.034,0.283-3.214c0.188-1.18,0.453-2.374,0.793-3.583c0.34-1.208,0.75-2.383,1.232-3.526
		c0.48-1.142,1.01-2.156,1.586-3.044c0.576-0.887,1.185-1.6,1.826-2.138c0.643-0.538,1.312-0.807,2.012-0.807
		c0.396,0,0.722,0.057,0.977,0.17c0.039,0.018,0.07,0.049,0.107,0.069c0.701,0.26,3.134,1.356,5.664,4.86
		C91.884,36.991,91.884,36.992,91.884,36.993z"/>
	<path display="inline" fill="#C92032" d="M86.028,36.406c-0.331,0.52-0.495,1.185-0.495,1.997c0,0.585,0.107,1.1,0.325,1.543
		c0.218,0.444,0.627,0.741,1.231,0.892c-0.039,0.3-0.088,0.589-0.135,0.883c0.383-2.021,0.648-4.742-0.361-5.978
		C86.38,35.932,86.19,36.151,86.028,36.406z"/>
	<g display="inline">
		<path fill="#C92032" d="M90.884,35h-0.659c0.104,0.11,0.213,0.231,0.319,0.35c0.317,0.234,0.572,0.546,0.771,0.913
			c0.184,0.23,0.366,0.449,0.553,0.705c-0.021-0.649-0.068-1.263-0.145-1.839L90.884,35z"/>
		<path fill="#C92032" d="M91.884,36.989c-0.006-0.008-0.01-0.014-0.016-0.021c0,0.004,0,0.007,0,0.011
			c0.002,0.002,0.016,0.015,0.016,0.016C91.884,36.992,91.884,36.991,91.884,36.989z"/>
		<path fill="#C92032" d="M93.194,40.411l0.074-2.453C93.083,37.984,92.903,38,92.726,38c-0.15,0-0.27,0-0.354,0
			c-0.086,0-0.488-0.268-0.488-0.306v-0.057c0-0.228-0.01-0.441-0.016-0.66c-0.02-0.026-0.142-0.134-0.343-0.287
			c0.472,1.172,0.532,2.707,0.472,3.959C92.404,40.58,92.8,40.498,93.194,40.411z"/>
	</g>
	<path display="inline" fill="#C92032" d="M92.884,40.472c1.38-0.287,2.686-0.677,3.916-1.171l0.57-2.664
		c-0.029,0.012-0.057,0.025-0.086,0.037c-0.793,0.321-1.582,0.705-2.365,0.903c-0.724,0.183-1.4,0.38-2.035,0.41V40.472
		L92.884,40.472z"/>
	<g display="inline">
		<path fill="#C92032" d="M85.136,31.889c0.396,0,0.722,0.057,0.977,0.17c0.039,0.018,0.07,0.049,0.107,0.069
			c0.541,0.199,2.109,0.909,3.958,2.819c0.596,0.137,1.159,0.267,1.573,0.362c-0.32-2.647-1.229-4.538-2.756-5.667
			c-2.69,0.633-4.608,1.907-5.854,3.041C83.779,32.155,84.443,31.889,85.136,31.889z"/>
		<path fill="#C92032" d="M81.916,33.976c-0.025,0.031-0.047,0.06-0.072,0.091C81.869,34.035,81.892,34.006,81.916,33.976z"/>
		<path fill="#C92032" d="M81.71,34.24c-0.272,0.361-0.412,0.594-0.412,0.594C81.434,34.626,81.571,34.429,81.71,34.24z"/>
	</g>
	<path display="inline" fill="#C92032" d="M137.843,31.22l-1.02,4.631c0.717-0.66,1.377-1.192,1.979-1.599
		c0.604-0.405,1.35-0.608,2.237-0.608c0.283,0,0.485,0.095,0.608,0.282c0.122,0.189,0.222,0.426,0.297,0.708
		c0.075,0.283,0.146,0.591,0.214,0.921c0.031,0.162,0.074,0.318,0.127,0.47c-0.684-4.26-3.145-4.874-3.145-4.874
		c-0.528,0.435-1.049,0.878-1.559,1.331L137.843,31.22z"/>
</g>
<g id="Layer_1_copy_2">
	<g>
		<path fill="#FFFFFF" d="M37.19,72.387l9.686-45.652h8.354l-0.935,4.361c0.85-0.718,1.822-1.312,2.917-1.784
			c1.095-0.473,2.379-0.708,3.852-0.708c0.981,0,1.907,0.155,2.775,0.467c0.868,0.312,1.619,0.821,2.251,1.529
			c0.632,0.708,1.133,1.646,1.501,2.817c0.368,1.171,0.552,2.615,0.552,4.333c0,1.304-0.09,2.714-0.269,4.234
			c-0.18,1.52-0.486,3.04-0.92,4.56c-0.435,1.521-1.005,2.983-1.713,4.391c-0.708,1.406-1.591,2.647-2.648,3.724
			c-1.058,1.076-2.308,1.939-3.752,2.592c-1.444,0.65-3.101,0.978-4.97,0.978c-0.736,0-1.378-0.058-1.926-0.17
			c-0.548-0.113-1.015-0.266-1.402-0.453c-0.387-0.188-0.708-0.41-0.963-0.666c-0.255-0.254-0.467-0.515-0.637-0.778l-3.002,14.132
			L37.19,72.387z M49.877,51.854c0.113,0.32,0.344,0.623,0.694,0.905c0.349,0.283,0.854,0.426,1.515,0.426
			c1.02,0,1.926-0.261,2.719-0.779s1.491-1.207,2.096-2.067c0.604-0.858,1.114-1.836,1.529-2.931s0.755-2.218,1.02-3.37
			c0.264-1.15,0.458-2.289,0.581-3.413c0.123-1.123,0.184-2.138,0.184-3.044c0-1.114-0.104-1.992-0.312-2.634
			s-0.458-1.123-0.75-1.444c-0.293-0.32-0.609-0.523-0.949-0.608c-0.34-0.085-0.642-0.127-0.906-0.127
			c-0.661,0-1.355,0.24-2.082,0.722s-1.364,1.194-1.912,2.138L49.877,51.854z"/>
		<path fill="#FFFFFF" d="M112.975,47.493c-0.548,1.567-1.157,2.927-1.827,4.078s-1.369,2.124-2.096,2.917s-1.473,1.435-2.237,1.926
			s-1.506,0.868-2.224,1.133c-0.717,0.266-1.401,0.443-2.053,0.538c-0.65,0.096-1.231,0.143-1.742,0.143
			c-0.868,0-1.68-0.132-2.436-0.396c-0.755-0.265-1.412-0.68-1.968-1.246c-0.558-0.565-0.996-1.284-1.317-2.151
			c-0.32-0.868-0.48-1.916-0.48-3.145c0-0.528,0.037-1.108,0.113-1.742c0.076-0.632,0.188-1.316,0.34-2.053l3.482-16.284h-1.926
			l0.48-2.321h1.897l1.756-8.016l8.581-1.161l-1.982,9.177h3.483l-0.452,2.321h-3.484l-3.709,17.39
			c-0.096,0.32-0.156,0.637-0.184,0.948c-0.029,0.312-0.043,0.619-0.043,0.92c0,0.812,0.188,1.373,0.566,1.687
			c0.377,0.311,0.972,0.467,1.783,0.467c0.566,0,1.119-0.127,1.658-0.383c0.537-0.254,1.033-0.608,1.486-1.062
			c0.453-0.453,0.859-0.995,1.219-1.628c0.357-0.632,0.65-1.316,0.877-2.053h2.437V47.493z"/>
		<g>
			<path fill="#C6C6C6" d="M109.662,49.3c-0.358,0.634-0.765,1.3-1.218,1.752c-0.452,0.453-0.948,0.869-1.487,1.123
				c-0.537,0.257-1.09,0.413-1.656,0.413c-0.812,0-1.407-0.141-1.784-0.45c-0.274-0.229-0.447-0.582-0.521-1.074
				c0.159,1.832,1.045,4.29,4.467,4.862c0.539-0.412,1.072-0.873,1.591-1.438c0.727-0.793,1.425-2.011,2.096-3.162
				c0.67-1.152,1.279-2.324,1.827-4.324h-2.436C110.313,48,110.02,48.667,109.662,49.3z"/>
			<path fill="#C6C6C6" d="M103.104,48.971l-0.026,0.025c0,0-0.031,0.167-0.062,0.428C103.033,49.275,103.071,49.123,103.104,48.971
				z"/>
			<path fill="#C6C6C6" d="M102.968,50.067c0-0.03,0.002-0.062,0.004-0.091C102.971,50.007,102.968,50.035,102.968,50.067z"/>
		</g>
		<path fill="#FFFFFF" d="M128.466,47.493c-0.549,1.567-1.156,2.927-1.827,4.078s-1.368,2.124-2.097,2.917
			c-0.727,0.793-1.473,1.435-2.235,1.926c-0.767,0.491-1.507,0.868-2.224,1.133c-0.719,0.266-1.402,0.443-2.054,0.538
			c-0.651,0.096-1.231,0.143-1.741,0.143c-0.869,0-1.682-0.132-2.437-0.396s-1.412-0.68-1.968-1.246
			c-0.557-0.565-0.996-1.284-1.317-2.151c-0.321-0.868-0.481-1.916-0.481-3.145c0-0.528,0.039-1.108,0.113-1.742
			c0.076-0.632,0.189-1.316,0.34-2.053l3.483-16.284h-1.926l0.481-2.321h1.896l1.756-8.016l8.581-1.161l-1.981,9.177h3.482
			l-0.453,2.321h-3.482l-3.711,17.39c-0.095,0.32-0.156,0.637-0.184,0.948c-0.027,0.312-0.042,0.619-0.042,0.92
			c0,0.812,0.188,1.373,0.565,1.687c0.379,0.311,0.974,0.467,1.785,0.467c0.565,0,1.119-0.127,1.655-0.383
			c0.539-0.254,1.034-0.608,1.487-1.062c0.453-0.453,0.859-0.995,1.218-1.628c0.358-0.632,0.651-1.316,0.878-2.053h2.438V47.493z"/>
		<g>
			<path fill="#C6C6C6" d="M126.031,47c-0.227,1-0.52,1.667-0.878,2.3c-0.358,0.634-0.765,1.3-1.218,1.752
				c-0.453,0.453-0.948,0.869-1.486,1.123c-0.537,0.257-1.091,0.413-1.656,0.413c-0.812,0-1.406-0.141-1.785-0.45
				c-0.273-0.228-0.445-0.581-0.521-1.07c0.181,1.701,1.058,3.981,4.218,5.045c0.625-0.448,1.24-0.972,1.84-1.625
				c0.728-0.793,1.426-2.011,2.096-3.162c0.671-1.152,1.279-2.324,1.826-4.324L126.031,47L126.031,47z"/>
			<path fill="#C6C6C6" d="M118.598,48.955l-0.024,0.017c0,0-0.048,0.205-0.084,0.545C118.507,49.332,118.557,49.143,118.598,48.955
				z"/>
			<path fill="#C6C6C6" d="M118.449,50.319c0.002-0.237,0.012-0.478,0.032-0.72C118.46,49.802,118.447,50.045,118.449,50.319z"/>
		</g>
		<path fill="#FFFFFF" d="M123.822,57.887l6.146-29h8.354l-0.736,3.597c0.511-0.453,1.029-0.896,1.559-1.331
			c0.527-0.435,1.081-0.816,1.656-1.147c0.576-0.33,1.176-0.599,1.799-0.807s1.283-0.312,1.982-0.312c0.66,0,1.24,0.122,1.74,0.367
			c0.502,0.246,0.922,0.566,1.262,0.963c0.34,0.397,0.595,0.859,0.765,1.389c0.17,0.528,0.255,1.076,0.255,1.643
			c0,0.51-0.085,1.016-0.255,1.516s-0.431,0.948-0.779,1.345c-0.349,0.396-0.788,0.722-1.315,0.977
			c-0.528,0.255-1.144,0.382-1.842,0.382c-0.548,0-0.968-0.094-1.261-0.282c-0.292-0.188-0.514-0.426-0.665-0.708
			c-0.15-0.283-0.26-0.59-0.324-0.92c-0.066-0.33-0.139-0.638-0.213-0.92c-0.076-0.283-0.176-0.52-0.298-0.708
			c-0.123-0.188-0.325-0.283-0.608-0.283c-0.889,0-1.633,0.203-2.237,0.608c-0.604,0.406-1.265,0.939-1.981,1.601l-4.646,22.033
			L123.822,57.887L123.822,57.887z"/>
		<path fill="#FFFFFF" d="M101.675,34.268c-0.623,0.435-1.312,0.863-2.067,1.289c-0.755,0.425-1.528,0.798-2.321,1.118
			c-0.793,0.321-1.582,0.705-2.365,0.903C94.137,37.776,93.406,38,92.726,38c-0.15,0-0.27,0-0.354,0
			c-0.086,0-0.488-0.268-0.488-0.306v-0.057c0-6.175-2.373-9.262-7.338-9.262c-1.982,0-3.694,0.354-5.242,1.062
			c-1.549,0.708-2.885,1.638-4.065,2.79c-1.18,1.151-2.167,2.459-2.988,3.922s-1.485,2.959-2.004,4.489
			c-0.52,1.528-0.893,3.016-1.129,4.46c-0.236,1.443-0.352,2.732-0.352,3.865c0,1.662,0.232,3.073,0.694,4.233
			c0.462,1.162,1.105,2.105,1.926,2.832c0.821,0.728,1.803,1.256,2.946,1.586c1.142,0.331,2.383,0.496,3.724,0.496
			c1.773,0,3.455-0.406,5.041-1.218c1.586-0.812,2.992-1.974,4.22-3.483c1.228-1.511,2.242-3.342,3.044-5.494
			c0.803-2.151,1.317-4.568,1.543-7.25c2.133-0.357,4.098-0.953,5.891-1.784s3.258-1.841,4.391-3.029L101.675,34.268z
			 M91.884,36.993c0-0.05-2.42-2.102-4.541-1.76c0,0.009,0.002,0.016,0.002,0.024c-0.549,0.246-0.987,0.628-1.317,1.147
			c-0.331,0.52-0.495,1.185-0.495,1.997c0,0.585,0.107,1.1,0.325,1.543c0.218,0.444,0.627,0.741,1.231,0.892
			c-0.227,1.699-0.57,3.285-1.033,4.759c-0.463,1.473-0.996,2.746-1.6,3.822c-0.604,1.076-1.261,1.926-1.969,2.549
			s-1.412,0.936-2.109,0.936c-0.549,0-1.01-0.066-1.389-0.198c-0.378-0.132-0.685-0.373-0.92-0.722
			c-0.236-0.351-0.406-0.826-0.51-1.432c-0.104-0.604-0.156-1.388-0.156-2.351s0.094-2.034,0.283-3.214
			c0.188-1.18,0.453-2.374,0.793-3.583c0.34-1.208,0.75-2.383,1.232-3.526c0.48-1.142,1.01-2.156,1.586-3.044
			c0.576-0.887,1.185-1.6,1.826-2.138c0.643-0.538,1.312-0.807,2.012-0.807c0.396,0,0.722,0.057,0.977,0.17
			c0.039,0.018,0.07,0.049,0.107,0.069c0.701,0.26,3.134,1.356,5.664,4.86C91.884,36.991,91.884,36.992,91.884,36.993z"/>
	</g>
	<path fill="#FFFFFF" d="M41.466,22.203c0,0.812-0.109,1.553-0.326,2.223c-0.217,0.671-0.515,1.246-0.892,1.729
		c-0.378,0.48-0.84,0.854-1.388,1.119c-0.548,0.265-1.143,0.396-1.784,0.396c-0.736,0-1.402-0.155-1.997-0.467
		c-0.595-0.311-1.109-0.76-1.543-1.345c0.717-0.528,1.293-1.232,1.728-2.11c0.434-0.878,0.651-1.816,0.651-2.817
		c0-1.246-0.368-2.232-1.104-2.959c-0.736-0.728-1.747-1.091-3.03-1.091c-0.774,0-1.487,0.146-2.138,0.439s-1.208,0.699-1.671,1.218
		c-0.463,0.521-0.821,1.138-1.076,1.855s-0.382,1.501-0.382,2.351c0,0.642,0.078,1.265,0.234,1.868
		c0.156,0.604,0.389,1.189,0.701,1.757c0.623,1.133,1.406,2.247,2.351,3.342c0.944,1.096,1.963,2.205,3.059,3.328
		c1.095,1.124,2.114,2.322,3.059,3.597c0.944,1.274,1.728,2.653,2.351,4.136c0.623,1.481,0.935,3.12,0.935,4.914
		c0,1.906-0.396,3.667-1.189,5.281s-1.893,3.012-3.299,4.192c-1.407,1.18-3.059,2.104-4.956,2.775
		c-1.897,0.67-3.951,1.005-6.16,1.005c-1.851,0-3.526-0.241-5.027-0.723c-1.501-0.481-2.785-1.171-3.852-2.067
		c-1.067-0.896-1.893-1.968-2.478-3.214s-0.878-2.635-0.878-4.163c0-1.284,0.208-2.482,0.623-3.598
		c0.415-1.113,0.981-2.082,1.699-2.902c0.717-0.821,1.567-1.468,2.549-1.94c0.981-0.472,2.029-0.708,3.144-0.708
		c1.359,0,2.501,0.34,3.427,1.021c0.925,0.68,1.501,1.613,1.728,2.804c-1.02,0-1.936,0.142-2.747,0.425
		c-0.812,0.283-1.501,0.68-2.067,1.189c-0.566,0.509-1.005,1.128-1.317,1.854c-0.312,0.728-0.467,1.543-0.467,2.45
		c0,1.699,0.496,3.044,1.487,4.036c0.991,0.99,2.327,1.486,4.007,1.486c1.02,0,1.963-0.185,2.832-0.554
		c0.868-0.367,1.614-0.873,2.237-1.515s1.114-1.406,1.473-2.294c0.358-0.887,0.538-1.851,0.538-2.889
		c0-1.058-0.175-2.072-0.524-3.045c-0.35-0.972-0.817-1.916-1.402-2.831c-0.585-0.916-1.246-1.817-1.982-2.705
		s-1.492-1.779-2.266-2.677c-0.774-0.896-1.529-1.798-2.266-2.705c-0.737-0.906-1.397-1.836-1.982-2.79
		c-0.585-0.952-1.053-1.939-1.402-2.959c-0.35-1.02-0.524-2.096-0.524-3.229c0-1.529,0.326-2.94,0.977-4.234
		c0.651-1.293,1.558-2.412,2.719-3.355c1.161-0.944,2.535-1.686,4.121-2.224c1.586-0.537,3.313-0.807,5.183-0.807
		c1.567,0,2.983,0.194,4.248,0.581c1.265,0.387,2.346,0.935,3.243,1.643c0.896,0.708,1.59,1.562,2.082,2.563
		C41.221,19.862,41.466,20.976,41.466,22.203z"/>
</g>
<g id="Layer_4_copy">
	<polygon fill="#C6C6C6" points="110.371,31 110.824,29 107.363,29 106.489,33.023 106.489,33.023 106.886,31 	"/>
	<polygon fill="#C6C6C6" points="125.861,31 126.314,29 122.85,29 121.806,33.837 121.806,33.837 122.376,31 	"/>
	<g>
		<g>
			<path fill="#C6C6C6" d="M26.987,25.357l0.005,0.001c-0.069-0.186-0.129-0.372-0.183-0.561
				C26.903,25.151,26.987,25.357,26.987,25.357z"/>
			<path fill="#C6C6C6" d="M38.648,16.298c-0.897-0.708-1.978-1.255-3.243-1.643c-0.526-0.161-1.084-0.28-1.663-0.374
				c-3.568,1.414-5.431,3.273-6.357,5.064c0.173-0.292,0.366-0.564,0.585-0.812c0.462-0.519,1.02-0.925,1.671-1.218
				c0.651-0.292,1.364-0.439,2.138-0.439c1.284,0,2.294,0.364,3.03,1.09c0.736,0.728,1.104,1.714,1.104,2.959
				c0,1.001-0.217,1.94-0.651,2.818c-0.435,0.878-1.01,1.582-1.728,2.11c0.434,0.585,0.949,1.034,1.543,1.345
				c0.594,0.311,1.26,0.467,1.997,0.467c0.642,0,1.236-0.132,1.784-0.396c0.547-0.265,1.01-0.638,1.388-1.119
				c0.377-0.481,0.675-1.058,0.892-1.729c0.217-0.67,0.326-1.41,0.326-2.223c0-1.227-0.246-2.341-0.736-3.342
				C40.239,17.861,39.545,17.006,38.648,16.298z"/>
		</g>
		<g>
			<path fill="#C6C6C6" d="M23.426,54.885c-1.681,0-3.016-0.495-4.007-1.485c-0.991-0.992-1.487-2.337-1.487-4.036
				c0-0.906,0.156-1.723,0.467-2.45c0.312-0.727,0.75-1.345,1.317-1.854c0.567-0.511,1.255-0.906,2.067-1.189
				s1.728-0.425,2.747-0.425c-0.227-1.189-0.803-2.124-1.728-2.804c-0.925-0.681-2.067-1.021-3.427-1.021
				c-1.114,0-2.162,0.236-3.144,0.708s-1.832,1.119-2.549,1.94c-0.718,0.82-1.284,1.789-1.699,2.902
				c-0.416,1.114-0.623,2.313-0.623,3.598c0,1.528,0.292,2.917,0.878,4.163c0.585,1.245,1.411,2.316,2.478,3.214
				c0.041,0.034,0.087,0.062,0.129,0.098c5.019,0.802,9.25-0.817,11.39-1.902C25.374,54.703,24.438,54.885,23.426,54.885z"/>
			<path fill="#C6C6C6" d="M26.975,53.944c-0.203,0.115-0.399,0.237-0.618,0.335C26.591,54.158,26.797,54.046,26.975,53.944z"/>
			<path fill="#C6C6C6" d="M27.741,53.475l-0.002-0.023c-0.049,0.037-0.091,0.083-0.141,0.118
				C27.689,53.51,27.741,53.475,27.741,53.475z"/>
		</g>
	</g>
	<g>
		<path fill="#C6C6C6" d="M53.321,35.601c0.544-0.931,1.175-1.637,1.895-2.112c0.727-0.481,1.42-0.722,2.082-0.722
			c0.264,0,0.566,0.042,0.906,0.127c0.34,0.085,0.656,0.288,0.949,0.608c0.292,0.321,0.542,0.804,0.75,1.444
			c0.208,0.642,0.312,1.52,0.312,2.634c0,0.589-0.036,1.242-0.087,1.922l0.008,0.002c0,0,0.858-6.375-2.299-10.419
			c-0.211,0.07-0.424,0.14-0.623,0.226c-1.095,0.472-2.067,1.066-2.917,1.784L53.321,35.601z"/>
		<polygon fill="#C6C6C6" points="52.845,37.8 52.845,37.8 52.851,37.771 		"/>
	</g>
	<path fill="#C6C6C6" d="M57.236,49.833l-0.033,0.008C57.1,50.004,57.01,50.184,56.9,50.34c-0.604,0.86-1.303,1.549-2.096,2.067
		c-0.793,0.52-1.699,0.779-2.719,0.779c-0.661,0-1.166-0.143-1.515-0.426c-0.35-0.282-0.581-0.585-0.694-0.905l0.066-0.313
		l-1.001,4.618c0.132,0.206,0.298,0.407,0.481,0.606C53.999,55.86,57.236,49.833,57.236,49.833z"/>
	<path fill="#C6C6C6" d="M86.028,36.406c-0.331,0.52-0.495,1.185-0.495,1.997c0,0.585,0.107,1.1,0.325,1.543
		c0.218,0.444,0.627,0.741,1.231,0.892c-0.039,0.3-0.088,0.589-0.135,0.883c0.383-2.021,0.648-4.742-0.361-5.978
		C86.38,35.932,86.19,36.151,86.028,36.406z"/>
	<g>
		<path fill="#C6C6C6" d="M90.884,35h-0.659c0.104,0.11,0.213,0.231,0.319,0.35c0.317,0.234,0.572,0.546,0.771,0.913
			c0.184,0.23,0.366,0.449,0.553,0.705c-0.021-0.649-0.068-1.263-0.145-1.839L90.884,35z"/>
		<path fill="#C6C6C6" d="M91.884,36.989c-0.006-0.008-0.01-0.014-0.016-0.021c0,0.004,0,0.007,0,0.011
			c0.002,0.002,0.016,0.015,0.016,0.016C91.884,36.992,91.884,36.991,91.884,36.989z"/>
		<path fill="#C6C6C6" d="M93.194,40.411l0.074-2.453C93.083,37.984,92.903,38,92.726,38c-0.15,0-0.27,0-0.354,0
			c-0.086,0-0.488-0.268-0.488-0.306v-0.057c0-0.228-0.01-0.441-0.016-0.66c-0.02-0.026-0.142-0.134-0.343-0.287
			c0.472,1.172,0.532,2.707,0.472,3.959C92.404,40.58,92.8,40.498,93.194,40.411z"/>
	</g>
	<path fill="#C6C6C6" d="M92.884,40.472c1.38-0.287,2.686-0.677,3.916-1.171l0.57-2.664c-0.029,0.012-0.057,0.025-0.086,0.037
		c-0.793,0.321-1.582,0.705-2.365,0.903c-0.724,0.183-1.4,0.38-2.035,0.41V40.472L92.884,40.472z"/>
	<g>
		<path fill="#C6C6C6" d="M85.136,31.889c0.396,0,0.722,0.057,0.977,0.17c0.039,0.018,0.07,0.049,0.107,0.069
			c0.541,0.199,2.109,0.909,3.958,2.819c0.596,0.137,1.159,0.267,1.573,0.362c-0.32-2.647-1.229-4.538-2.756-5.667
			c-2.69,0.633-4.608,1.907-5.854,3.041C83.779,32.155,84.443,31.889,85.136,31.889z"/>
		<path fill="#C6C6C6" d="M81.916,33.976c-0.025,0.031-0.047,0.06-0.072,0.091C81.869,34.035,81.892,34.006,81.916,33.976z"/>
		<path fill="#C6C6C6" d="M81.71,34.24c-0.272,0.361-0.412,0.594-0.412,0.594C81.434,34.626,81.571,34.429,81.71,34.24z"/>
	</g>
	<path fill="#C6C6C6" d="M137.843,31.22l-1.02,4.631c0.717-0.66,1.377-1.192,1.979-1.599c0.604-0.405,1.35-0.608,2.237-0.608
		c0.283,0,0.485,0.095,0.608,0.282c0.122,0.189,0.222,0.426,0.297,0.708c0.075,0.283,0.146,0.591,0.214,0.921
		c0.031,0.162,0.074,0.318,0.127,0.47c-0.684-4.26-3.145-4.874-3.145-4.874c-0.528,0.435-1.049,0.878-1.559,1.331L137.843,31.22z"/>
</g>
<g id="Layer_2">
</g>
</svg>
